<svg width="51" height="51" viewBox="0 0 51 51" fill="none" xmlns="http://www.w3.org/2000/svg">
<path d="M48.4582 23.4547H45.994C44.6035 23.4547 43.4796 24.3574 43.4796 25.4688C43.4796 26.5776 44.6035 27.4778 45.994 27.4778H48.4582C49.8462 27.4778 50.9727 26.5801 50.9727 25.4688C50.9727 24.3599 49.8437 23.4547 48.4582 23.4547ZM25.8281 11.6393C24.0104 11.6336 22.2096 11.9875 20.5291 12.6805C18.8487 13.3735 17.3219 14.3919 16.0366 15.6772C14.7513 16.9625 13.7328 18.4893 13.0398 20.1698C12.3468 21.8502 11.993 23.6511 11.9986 25.4688C11.9986 33.1403 18.1565 39.2982 25.8281 39.2982C33.4972 39.2982 39.6576 33.1403 39.6576 25.4688C39.6576 17.7972 33.4947 11.6393 25.8281 11.6393ZM25.8281 35.5266C20.2687 35.5266 15.7703 31.0232 15.7703 25.4688C15.7703 19.9093 20.2687 15.4109 25.8281 15.4109C28.4956 15.4109 31.0539 16.4706 32.9401 18.3568C34.8263 20.243 35.8859 22.8013 35.8859 25.4688C35.8859 28.1362 34.8263 30.6945 32.9401 32.5807C31.0539 34.4669 28.4956 35.5266 25.8281 35.5266ZM8.22695 25.4688C8.22695 24.3599 7.09796 23.4547 5.7125 23.4547H3.19805C1.80755 23.4547 0.683594 24.3574 0.683594 25.4688C0.683594 26.5776 1.80755 27.4778 3.19805 27.4778H5.7125C7.09796 27.4778 8.22695 26.5776 8.22695 25.4688ZM25.8281 7.86758C26.937 7.86758 27.8372 6.74362 27.8372 5.35313V2.83867C27.8372 1.44818 26.937 0.324219 25.8281 0.324219C24.7167 0.324219 23.814 1.44818 23.814 2.83867V5.35313C23.814 6.74362 24.7167 7.86758 25.8281 7.86758ZM25.8281 43.0699C24.7167 43.0699 23.814 44.1939 23.814 45.5844V48.0988C23.814 49.4893 24.7167 50.6133 25.8281 50.6133C26.937 50.6133 27.8372 49.4893 27.8372 48.0988V45.5844C27.8372 44.1939 26.937 43.0699 25.8281 43.0699ZM44.3471 9.79365C45.3302 8.8105 45.4886 7.37726 44.7041 6.59275C43.9196 5.80824 42.4839 5.96917 41.5057 6.95232L39.7456 8.70992C38.7625 9.69307 38.6041 11.1263 39.3886 11.9108C40.1731 12.6953 41.6088 12.5344 42.5895 11.5513L44.3471 9.79365ZM9.06678 39.3812L7.30666 41.1438C6.32351 42.127 6.1651 43.5552 6.94961 44.3397C7.73412 45.1242 9.16987 44.9683 10.148 43.9852L11.9081 42.2276C12.8913 41.2444 13.0497 39.8112 12.2652 39.0242C11.4807 38.2371 10.0449 38.4031 9.06678 39.3812ZM10.1505 6.9498C9.16987 5.96665 7.73412 5.80573 6.94961 6.59024C6.1651 7.37475 6.32603 8.8105 7.30415 9.79365L9.06427 11.5513C10.0474 12.5344 11.4781 12.6953 12.2627 11.9108C13.0472 11.1263 12.8887 9.69056 11.9081 8.70992L10.1505 6.9498ZM39.7431 42.2301L41.5032 43.9877C42.4864 44.9708 43.9171 45.1267 44.7016 44.3473C45.4861 43.5628 45.3277 42.127 44.3446 41.1464L42.587 39.3888C41.6038 38.4056 40.1706 38.2447 39.3835 39.0292C38.5965 39.8137 38.76 41.2469 39.7431 42.2301Z" fill="black"/>
</svg>
