<svg width="41" height="44" viewBox="0 0 41 44" fill="none" xmlns="http://www.w3.org/2000/svg">
<path d="M21.8777 43.4032C25.2838 43.4092 28.6432 42.6114 31.6828 41.0745C34.7224 39.5376 37.3565 37.3051 39.3708 34.5585L39.3729 34.5555C39.7096 34.0834 39.9106 33.5282 39.9543 32.95C39.998 32.3718 39.8826 31.7926 39.6206 31.2753C39.3587 30.758 38.9601 30.3222 38.4682 30.0152C37.9763 29.7082 37.4098 29.5417 36.83 29.5336L36.828 29.5336C33.835 29.5129 30.897 28.7268 28.2935 27.2499L28.2936 27.2498L28.2872 27.2464C25.3933 25.7037 22.947 23.4395 21.1857 20.6732C19.4247 17.9076 18.4081 14.7339 18.2342 11.4598C18.1585 9.37349 18.4331 7.2892 19.0467 5.29368C19.2268 4.72085 19.2446 4.10933 19.0982 3.52697C18.9519 2.94474 18.6471 2.41443 18.2178 1.99487C17.8184 1.59696 17.3158 1.31853 16.7667 1.191C16.2173 1.06342 15.6432 1.09193 15.1092 1.27333C10.5142 2.80644 6.56684 5.83762 3.89962 9.88118C1.23226 13.925 -0.00039047 18.7471 0.399195 23.5749C0.798781 28.4026 2.80747 32.9565 6.10337 36.5067C9.39927 40.0569 13.7916 42.3979 18.5764 43.1546L18.5783 43.1549C19.6704 43.3196 20.7733 43.4026 21.8777 43.4032ZM21.8777 43.4032L21.8782 43.1279L21.878 43.4032C21.8779 43.4032 21.8778 43.4032 21.8777 43.4032ZM16.0201 4.01388L16.0212 4.01352C16.0422 4.00646 16.0641 4.00265 16.0863 4.00224C16.1065 4.00246 16.1266 4.00668 16.1452 4.01466C16.1643 4.02285 16.1815 4.03482 16.1959 4.04985L16.1958 4.04987L16.1985 4.05263C16.2481 4.10315 16.2831 4.16613 16.2997 4.2349C16.3164 4.30368 16.3141 4.37567 16.2931 4.44326L16.293 4.44364C15.5824 6.74672 15.2624 9.15254 15.3465 11.5613L15.3465 11.5613L15.3467 11.5658C15.5403 15.34 16.7055 19.0002 18.7294 22.1917C20.7528 25.3823 23.5658 27.9963 26.8959 29.7806C29.9211 31.4904 33.3328 32.3995 36.8077 32.4218C36.8571 32.4232 36.9051 32.4384 36.9464 32.4656C36.9881 32.4932 37.0213 32.532 37.042 32.5776L37.046 32.5865L37.0508 32.5952C37.0727 32.6355 37.0829 32.6811 37.0804 32.7269C37.0779 32.7719 37.0632 32.8152 37.0379 32.8524C35.2976 35.2312 33.0205 37.1657 30.3918 38.4988C27.762 39.8324 24.8544 40.5263 21.9058 40.5241C18.9571 40.5218 16.0506 39.8235 13.4228 38.486C10.7949 37.1484 8.51996 35.2093 6.78301 32.8265C5.04605 30.4437 3.89614 27.6846 3.42686 24.7735C2.95757 21.8624 3.18216 18.8816 4.08235 16.0737C4.98254 13.2658 6.5329 10.7101 8.60728 8.6145C10.6817 6.51889 13.2215 4.9426 16.0201 4.01388Z" fill="black" stroke="black" stroke-width="0.552199"/>
</svg>
