<svg width="46" height="46" viewBox="0 0 46 46" fill="none" xmlns="http://www.w3.org/2000/svg">
<path d="M42.8645 25.6139C42.3856 29.2652 40.9219 32.7174 38.6302 35.6001C36.3385 38.4827 33.3054 40.6872 29.856 41.9771C26.4067 43.2669 22.6713 43.5935 19.0505 42.9218C15.4296 42.25 12.06 40.6053 9.30281 38.1641C6.54568 35.7228 4.50509 32.577 3.39991 29.0641C2.29474 25.5513 2.16665 21.8038 3.0294 18.2237C3.89215 14.6436 5.71318 11.3658 8.2972 8.74197C10.8812 6.11813 14.1307 4.24719 17.6973 3.3298C27.5841 0.794056 37.8184 5.88329 41.5966 15.367" stroke="black" stroke-width="4" stroke-linecap="round" stroke-linejoin="round"/>
<path d="M43.0342 2.68848V15.3672H30.3555" stroke="black" stroke-width="4" stroke-linecap="round" stroke-linejoin="round"/>
</svg>
