<svg width="87" height="37" viewBox="0 0 87 37" fill="none" xmlns="http://www.w3.org/2000/svg">
<rect x="1.50781" y="1.92383" width="83.6055" height="33.0889" rx="16.5444" stroke="black" stroke-width="2"/>
<path d="M13.9405 25.7288V12.5127H17.8445V13.7927H15.3965V24.4328H17.8445V25.7288H13.9405ZM18.5696 23.9688L22.3776 12.7687H24.6656L28.4736 23.9688H26.8896L25.7056 20.5127H21.3376L20.1536 23.9688H18.5696ZM21.8016 19.1367H25.2416L23.5296 14.1127L21.8016 19.1367ZM29.9813 23.9688V12.6087H31.5013V23.9688H29.9813ZM37.0708 23.9688C35.4548 23.9688 34.6708 23.2007 34.6708 21.6168V17.3447H32.9428V15.9688H34.6708V13.4087H36.1908V15.9688H38.5908V17.3447H36.1908V21.6327C36.1908 22.2727 36.5108 22.5927 37.1508 22.5927H38.5908V23.9688H37.0708ZM46.8936 22.8487V19.9367H43.9656V18.5447H46.8936V15.6007H48.2696V18.5447H51.1976V19.9367H48.2696V22.8487H46.8936ZM57.389 23.9688V12.7687H59.245L64.813 21.7767V12.7687H66.397V23.9688H64.541L58.973 14.9607V23.9688H57.389ZM72.1363 12.5127V25.7288H68.2323V24.4488H70.6803V13.8087H68.2323V12.5127H72.1363Z" fill="black"/>
</svg>
